Sinister.2012.TS.XViD.UNiQUE

Format : AVI
Format/Info : Audio Video Interleave
File size : 1.38 GiB
Duration : 1h 43mn
Overall bit rate : 1 909 Kbps
Writing application : VirtualDubMod 1.5.10.2 (build 2540/release)
Writing library : VirtualDub build 34807/release

Video
ID : 0
Format : MPEG-4 Visual
Format profile : Advanced Simple@L5
Format settings, BVOP : 2
Format settings, QPel : No
Format settings, GMC : No warppoints
Format settings, Matrix : Default (H.263)
Muxing mode : Packed bitstream
Codec ID : XVID
Codec ID/Hint : XviD
Duration : 1h 43mn
Bit rate : 1 769 Kbps
Width : 598 pixels
Height : 268 pixels
Display aspect ratio : 2.25:1
Frame rate : 29.970 fps
Color space : YUV
Chroma subsampling : 4:2:0
Bit depth : 8 bits
Scan type : Progressive
Compression mode : Lossy
Bits/(Pixel*Frame) : 0.368
Stream size : 1.28 GiB (93%)
Writing library : XviD 64

Audio
ID : 1
Format : MPEG Audio
Format version : Version 1
Format profile : Layer 3
Mode : Joint stereo
Mode extension : MS Stereo
Codec ID : 55
Codec ID/Hint : MP3
Duration : 1h 43mn
Bit rate mode : Constant
Bit rate : 128 Kbps
Channel(s) : 2 channels
Sampling rate : 44.1 KHz
Compression mode : Lossy
Stream size : 94.5 MiB (7%)
Alignment : Split accross interleaves
Interleave, duration : 33 ms (1.00 video frame)
Interleave, preload duration : 500 ms

 
http://www.imdb.com/title/tt1922777/


Ratings: 7.2/10 from 9,729 users Metascore: 53/100
Reviews: 139 user | 152 critic | 30 from Metacritic.com

Found footage helps a true-crime author realize how and why a family was 
murdered in his new home, though his discoveries put his entire family in the 
path of a supernatural entity.

Director:
Scott Derrickson
Writers:
Scott Derrickson (screenplay), C. Robert Cargill
Stars:
Ethan Hawke, Juliet Rylance and James Ransone | See full cast and crew

Source Used

Video...........HP...........Thanks

Audio.............Jiinx...........Thanks matey


the movie is dark ................Cropped resized (more for watching on pc and small tv) levels filter ,gaussian blur removed,sat,contrast and slight sharpen


exact same vid as cam with line added .........Now bring on MATiNES 720

Greets


INSPiRAL,LEGION,iLLUSiON,DiLLON,THORN,DQ1,26K,ETRG/SeeN/CM8 .......and thats 
about it


Poster:

 
http://imgon.net/di-KSJ1.jpg


Screenshots:

 
http://imgon.net/di-8V0F.png

 
http://imgon.net/di-4Z1T.png

 
http://imgon.net/di-81LH.png


ENJOY!